# xmcd
#
# Track frame offsets: 
#        150
#        18464
#        37504
#        55007
#        75582
#        94622
#        111174
#        129939
#        148659
#        168092
#        186459
#
# Disc length: 2737 seconds
#
# Revision: 4
# Processed by: cddbd v1.5.2PL0 Copyright (c) Steve Scherf et al.
# Submitted via: ExactAudioCopy v1.0b3
#
DISCID=7f0aaf0b
DTITLE=Hiatt, John - Same Old Man
DYEAR=2008
DGENRE=Country Rock
TTITLE0=Old Days
TTITLE1=Love You Again
TTITLE2=On with You
TTITLE3=Hurt My Baby
TTITLE4=What Love Can Do
TTITLE5=Ride My Pony
TTITLE6=Cherry Red
TTITLE7=Our Time
TTITLE8=Two Hearts
TTITLE9=Same Old Man
TTITLE10=Let's Give This Love a Try
EXTD=YEAR: 2008
EXTT0=
EXTT1=
EXTT2=
EXTT3=
EXTT4=
EXTT5=
EXTT6=
EXTT7=
EXTT8=
EXTT9=
EXTT10=
PLAYORDER=
